<?xml version="1.0" standalone="no"?>
<!DOCTYPE svg PUBLIC "-//W3C//DTD SVG 20010904//EN"
 "http://www.w3.org/TR/2001/REC-SVG-20010904/DTD/svg10.dtd">
<svg version="1.0" xmlns="http://www.w3.org/2000/svg"
 width="237.000000pt" height="87.000000pt" viewBox="0 0 237.000000 87.000000"
 preserveAspectRatio="xMidYMid meet">

<g transform="translate(0.000000,87.000000) scale(0.100000,-0.100000)"
fill="#000000" stroke="none">
<path d="M959 838 c-41 -33 -27 -81 28 -98 21 -7 41 -18 45 -24 4 -6 10 -7 15
-3 13 13 -12 40 -47 52 -45 15 -60 39 -38 61 15 16 58 12 58 -5 0 -4 7 -16 15
-27 14 -18 14 -17 15 13 0 24 -4 32 -17 32 -10 -1 -27 2 -38 6 -11 3 -27 0
-36 -7z"/>
<path d="M1090 830 c0 -5 5 -10 11 -10 5 0 7 5 4 10 -3 6 -8 10 -11 10 -2 0
-4 -4 -4 -10z"/>
<path d="M1251 811 c0 -8 -9 -23 -18 -33 -12 -14 -13 -17 -2 -13 11 4 13 -5
11 -48 -3 -44 0 -55 13 -61 10 -3 23 -1 31 5 9 7 19 7 35 -1 24 -13 69 1 69
21 0 7 -8 5 -20 -6 -16 -15 -22 -15 -35 -5 -27 22 -18 40 20 40 28 0 35 4 35
19 0 21 -25 51 -41 51 -24 0 -49 -22 -49 -43 0 -38 -12 -67 -26 -67 -10 0 -14
13 -14 45 0 33 4 45 15 45 8 0 15 5 15 10 0 6 -6 10 -14 10 -8 0 -17 10 -19
23 -2 12 -5 16 -6 8z m114 -66 c0 -13 -8 -21 -22 -23 -17 -3 -23 2 -23 16 0
10 3 22 7 26 13 13 38 1 38 -19z"/>
<path d="M335 780 c-160 -54 -254 -194 -243 -366 9 -132 83 -238 208 -297 55
-27 76 -31 145 -31 65 0 91 5 137 26 75 35 151 107 185 177 25 49 28 68 28
151 0 84 -3 102 -28 152 -80 162 -266 243 -432 188z m133 -37 c-37 -43 -30
-109 17 -153 27 -25 33 -68 13 -88 -14 -14 -64 -16 -73 -2 -3 6 1 7 9 4 13 -5
13 1 -4 37 -12 28 -20 66 -20 106 0 56 2 63 31 87 35 30 49 34 27 9z m81 -117
c23 -37 38 -96 25 -96 -14 0 -104 107 -104 123 0 40 48 23 79 -27z m-189 11
c0 -2 -12 -14 -27 -28 l-28 -24 24 28 c23 25 31 32 31 24z m250 -59 c21 -46
26 -93 10 -83 -5 3 -10 17 -10 31 0 14 -7 40 -14 59 -21 50 -9 43 14 -7z
m-255 2 c-10 -11 -20 -18 -23 -15 -3 3 3 14 13 25 10 11 20 18 23 15 3 -3 -3
-14 -13 -25z m295 -24 c0 -12 -5 -7 -19 24 -11 24 -11 24 3 6 9 -11 16 -24 16
-30z m-340 19 c0 -2 -10 -9 -22 -15 -22 -11 -22 -10 -4 4 21 17 26 19 26 11z
m78 -45 c-2 -5 -9 -6 -16 -1 -7 4 -10 15 -6 25 6 17 8 17 16 2 5 -9 8 -21 6
-26z m-128 -9 c-5 -11 -14 -37 -19 -58 -6 -24 -9 -30 -10 -15 -1 24 24 92 34
92 3 0 1 -9 -5 -19z m97 1 c28 -10 57 -23 65 -29 7 -6 23 -13 35 -15 21 -3 21
-3 2 -26 -17 -22 -21 -23 -56 -11 -21 7 -33 14 -26 16 7 2 21 -1 32 -7 13 -7
21 -7 21 -1 0 13 -27 27 -69 35 -19 3 -43 14 -53 23 -16 15 -18 15 -18 0 0 -9
10 -23 22 -31 22 -16 22 -16 -14 -16 -40 0 -41 4 -15 58 13 27 10 26 74 4z
m262 -44 c30 -26 38 -47 24 -61 -3 -4 -26 11 -49 33 -24 22 -50 40 -59 40 -16
0 -19 9 -9 34 6 15 9 15 34 -1 15 -10 41 -30 59 -45z m38 20 c-3 -7 -5 -2 -5
12 0 14 2 19 5 13 2 -7 2 -19 0 -25z m17 -68 c-6 -6 -10 -3 -10 10 0 13 4 16
10 10 7 -7 7 -13 0 -20z m-127 0 c14 -11 34 -20 43 -20 30 0 44 -26 33 -63 -7
-26 -13 -31 -32 -29 -78 11 -97 -42 -36 -101 46 -44 44 -52 -5 -27 -22 11 -40
23 -40 26 0 3 6 2 13 -2 6 -4 4 2 -7 14 -10 12 -22 19 -26 17 -4 -3 -14 3 -21
13 -13 15 -12 16 4 3 21 -17 21 -12 2 25 -17 32 -20 111 -5 134 7 12 9 11 9
-5 0 -11 3 -39 7 -63 6 -40 8 -41 21 -22 23 32 48 41 80 29 l28 -10 -22 20
-22 21 -36 -21 c-19 -12 -35 -16 -35 -11 0 6 -3 17 -6 26 -5 12 0 16 16 16 22
0 22 1 7 18 -10 10 -14 22 -10 25 9 10 12 9 40 -13z m-217 -20 c0 -15 -71 -59
-114 -71 -21 -6 -36 -13 -33 -15 10 -10 84 16 118 41 19 13 44 32 57 41 16 12
26 14 33 7 14 -14 -55 -70 -105 -85 -31 -10 -35 -13 -20 -19 24 -9 -85 -4
-113 5 -34 11 -36 33 -2 33 17 0 46 14 75 36 45 35 104 50 104 27z m323 -15
c-3 -9 -8 -14 -10 -11 -3 3 -2 9 2 15 9 16 15 13 8 -4z m-223 -12 c0 -9 -3
-13 -7 -10 -3 4 -18 0 -32 -9 -22 -13 -21 -11 4 10 36 31 35 31 35 9z m-230 3
c0 -2 -8 -10 -17 -17 -16 -13 -17 -12 -4 4 13 16 21 21 21 13z m213 -65 c-18
-12 -65 -152 -61 -181 l4 -29 -35 15 c-19 8 -37 17 -40 20 -3 2 12 21 33 41
34 33 84 113 71 113 -3 0 -23 -12 -45 -26 -51 -34 -148 -45 -173 -19 -9 9 -17
22 -17 28 0 8 4 7 12 -1 17 -17 96 -15 150 3 25 9 58 30 74 46 24 25 30 27 32
13 2 -9 0 -19 -5 -23z m-53 24 c0 -6 -56 -35 -67 -35 -4 1 8 9 27 20 39 22 40
22 40 15z m77 -17 c-3 -8 -6 -5 -6 6 -1 11 2 17 5 13 3 -3 4 -12 1 -19z m47
-107 c17 -18 53 -44 80 -56 46 -22 47 -24 25 -35 -20 -11 -25 -9 -42 14 -22
30 -37 34 -30 7 6 -24 -31 -51 -71 -51 l-29 0 21 23 c27 29 28 66 2 117 -11
22 -20 47 -20 57 1 13 6 9 17 -12 8 -16 29 -45 47 -64z m112 52 c10 -49 13
-53 44 -71 35 -20 37 -28 10 -37 -21 -7 -51 5 -53 21 -1 5 -14 20 -29 32 -15
13 -28 34 -28 45 1 21 1 21 15 -3 l14 -25 1 33 c0 39 17 42 26 5z"/>
<path d="M1070 770 c0 -5 5 -10 11 -10 8 0 10 -18 7 -53 l-4 -53 50 2 c28 0
57 2 64 2 14 2 17 62 3 62 -5 0 -22 5 -37 10 -26 10 -27 12 -10 28 16 16 18
16 37 -7 18 -22 19 -22 19 -3 0 26 -47 39 -68 19 -21 -22 -6 -54 28 -62 32 -7
40 -32 13 -42 -10 -4 -23 2 -35 16 -14 18 -18 20 -18 7 0 -9 -4 -16 -10 -16
-5 0 -10 18 -10 39 0 22 -3 46 -6 55 -7 17 -34 22 -34 6z"/>
<path d="M1400 771 c0 -5 4 -12 9 -15 5 -3 8 -14 6 -24 -15 -77 -15 -79 11
-79 13 0 24 3 24 8 0 5 -4 9 -10 9 -13 0 -13 46 0 71 6 10 18 19 27 19 13 0
15 -9 11 -54 -4 -51 -3 -53 19 -53 13 0 23 3 23 8 0 5 -4 9 -10 9 -12 0 -13
60 -1 79 5 8 16 11 26 7 14 -5 17 -15 13 -54 l-5 -47 39 -3 c21 -1 47 2 57 7
12 7 22 6 29 -1 7 -7 15 -8 19 -3 5 4 2 10 -4 12 -8 3 -13 23 -13 49 0 38 -4
46 -25 56 -27 12 -55 -2 -55 -28 0 -22 17 -16 23 7 6 24 30 21 35 -5 2 -11 -6
-20 -26 -27 -16 -5 -34 -20 -40 -32 -9 -20 -11 -18 -11 18 -2 55 -12 69 -49
62 -16 -3 -34 -1 -40 5 -7 7 -16 7 -28 0 -12 -7 -25 -7 -36 -1 -12 6 -18 6
-18 0z m250 -75 c0 -25 -27 -43 -42 -28 -12 12 0 40 20 45 10 3 18 5 20 6 1 0
2 -10 2 -23z"/>
<path d="M930 689 c0 -20 4 -29 13 -26 6 2 20 0 30 -5 25 -13 63 -2 71 19 6
16 6 16 -12 0 -10 -9 -25 -17 -34 -17 -17 0 -48 31 -48 48 0 7 -4 12 -10 12
-5 0 -10 -14 -10 -31z"/>
<path d="M1680 540 c0 -88 -8 -90 -11 -2 l-2 63 -49 -3 c-50 -3 -67 -20 -26
-26 43 -7 48 -19 48 -124 l0 -100 -35 31 c-20 17 -47 31 -61 31 -43 0 -91 -27
-117 -64 l-24 -37 -5 46 c-3 25 -19 67 -35 93 -79 129 -260 152 -367 46 -101
-102 -100 -281 4 -384 113 -114 296 -82 372 64 l22 41 6 -36 c20 -116 126
-167 204 -99 l35 31 3 -28 3 -28 233 -3 c197 -2 232 0 232 12 0 8 -10 16 -22
18 -22 3 -23 8 -26 98 -3 110 0 127 28 158 24 26 76 30 106 8 17 -13 19 -27
19 -138 l0 -123 -28 -3 c-16 -2 -27 -8 -24 -15 2 -8 35 -13 90 -15 71 -2 87 0
87 12 0 9 -11 16 -27 18 l-28 3 -5 127 c-3 69 -9 130 -13 135 -5 4 -6 -6 -2
-22 6 -28 5 -28 -15 8 -21 38 -38 49 -97 60 -26 5 -37 1 -63 -23 -18 -17 -34
-30 -35 -30 -2 0 -5 15 -7 33 -2 18 -8 32 -15 31 -7 -1 -31 -2 -53 -2 -22 -1
-40 -6 -40 -12 0 -5 6 -10 13 -10 8 0 21 -8 30 -18 14 -15 17 -41 17 -139 0
-138 -4 -146 -72 -141 l-43 3 -3 158 -3 157 -64 0 c-51 0 -65 -3 -65 -15 0
-10 10 -15 30 -15 38 0 42 -13 38 -165 l-3 -120 -55 0 -55 0 -3 255 c-1 149
-6 258 -12 264 -7 7 -10 -15 -10 -64z m-440 -28 c14 -10 35 -38 48 -63 21 -39
23 -55 20 -154 -4 -125 -21 -175 -72 -206 -41 -25 -110 -25 -151 1 -48 29 -67
79 -76 194 l-7 101 2 -103 c1 -57 -1 -95 -5 -85 -9 23 -11 160 -2 191 4 16 8
20 13 12 4 -7 10 3 14 24 8 41 62 102 98 109 38 8 91 -1 118 -21z m147 -171
c7 -60 -3 -132 -22 -157 -12 -17 -12 -13 -3 26 5 25 7 83 4 130 -5 92 10 93
21 1z m481 -23 l-2 -73 -3 60 c-2 32 -9 65 -15 72 -8 10 -6 13 6 13 13 0 16
-12 14 -72z m172 62 c0 -5 -2 -10 -4 -10 -3 0 -8 5 -11 10 -3 6 -1 10 4 10 6
0 11 -4 11 -10z m-445 -24 c64 -64 52 -235 -20 -268 -32 -14 -72 -3 -86 25 -7
12 -18 49 -25 82 l-13 60 5 -60 c3 -42 1 -54 -5 -40 -11 24 -13 90 -4 124 6
23 7 23 14 5 7 -17 8 -17 8 4 1 29 26 78 43 85 29 12 60 6 83 -17z"/>
<path d="M1816 591 c-21 -24 -14 -57 15 -66 43 -14 70 53 30 75 -25 13 -25 13
-45 -9z m38 3 c9 -4 16 -17 15 -33 0 -26 0 -26 -11 -3 -6 12 -15 22 -20 22 -4
0 -8 5 -8 10 0 12 3 12 24 4z"/>
<path d="M2210 393 c8 -3 24 -13 35 -22 20 -16 20 -16 1 7 -11 12 -26 22 -35
21 -14 0 -14 -1 -1 -6z"/>
</g>
</svg>
